<svg width="80" height="80" viewBox="0 0 80 80" fill="none" xmlns="http://www.w3.org/2000/svg">
<path d="M40 60C41.1333 60 42.084 59.616 42.852 58.848C43.6173 58.0827 44 57.1333 44 56C44 54.8667 43.6173 53.916 42.852 53.148C42.084 52.3827 41.1333 52 40 52C38.8667 52 37.9173 52.3827 37.152 53.148C36.384 53.916 36 54.8667 36 56C36 57.1333 36.384 58.0827 37.152 58.848C37.9173 59.616 38.8667 60 40 60ZM36 44H44V20H36V44ZM40 80C34.4667 80 29.2667 78.9493 24.4 76.848C19.5333 74.7493 15.3 71.9 11.7 68.3C8.1 64.7 5.25067 60.4667 3.152 55.6C1.05067 50.7333 0 45.5333 0 40C0 34.4667 1.05067 29.2667 3.152 24.4C5.25067 19.5333 8.1 15.3 11.7 11.7C15.3 8.1 19.5333 5.24933 24.4 3.148C29.2667 1.04933 34.4667 0 40 0C45.5333 0 50.7333 1.04933 55.6 3.148C60.4667 5.24933 64.7 8.1 68.3 11.7C71.9 15.3 74.7493 19.5333 76.848 24.4C78.9493 29.2667 80 34.4667 80 40C80 45.5333 78.9493 50.7333 76.848 55.6C74.7493 60.4667 71.9 64.7 68.3 68.3C64.7 71.9 60.4667 74.7493 55.6 76.848C50.7333 78.9493 45.5333 80 40 80ZM40 72C48.9333 72 56.5 68.9 62.7 62.7C68.9 56.5 72 48.9333 72 40C72 31.0667 68.9 23.5 62.7 17.3C56.5 11.1 48.9333 8 40 8C31.0667 8 23.5 11.1 17.3 17.3C11.1 23.5 8 31.0667 8 40C8 48.9333 11.1 56.5 17.3 62.7C23.5 68.9 31.0667 72 40 72Z" fill="#474747"/>
</svg>
