<svg width="30" height="30" viewBox="0 0 30 30" fill="none" xmlns="http://www.w3.org/2000/svg">
<path d="M19.5 15C19.5 15.89 19.2361 16.76 18.7416 17.5001C18.2471 18.2401 17.5443 18.8169 16.7221 19.1575C15.8998 19.4981 14.995 19.5872 14.1221 19.4135C13.2492 19.2399 12.4474 18.8113 11.818 18.182C11.1887 17.5526 10.7601 16.7508 10.5865 15.8779C10.4128 15.005 10.5019 14.1002 10.8425 13.2779C11.1831 12.4557 11.7599 11.7529 12.4999 11.2584C13.24 10.7639 14.11 10.5 15 10.5C16.1923 10.5037 17.3348 10.979 18.1779 11.8221C19.021 12.6652 19.4963 13.8077 19.5 15ZM29.0625 8.8125V21.1875C29.0625 23.2761 28.2328 25.2791 26.756 26.756C25.2791 28.2328 23.2761 29.0625 21.1875 29.0625H8.8125C6.72392 29.0625 4.72088 28.2328 3.24403 26.756C1.76719 25.2791 0.9375 23.2761 0.9375 21.1875V8.8125C0.9375 6.72392 1.76719 4.72088 3.24403 3.24403C4.72088 1.76719 6.72392 0.9375 8.8125 0.9375H21.1875C23.2761 0.9375 25.2791 1.76719 26.756 3.24403C28.2328 4.72088 29.0625 6.72392 29.0625 8.8125ZM21.75 15C21.75 13.665 21.3541 12.3599 20.6124 11.2499C19.8707 10.1399 18.8165 9.2747 17.5831 8.76381C16.3497 8.25292 14.9925 8.11925 13.6831 8.3797C12.3738 8.64015 11.171 9.28302 10.227 10.227C9.28302 11.171 8.64015 12.3738 8.3797 13.6831C8.11925 14.9925 8.25292 16.3497 8.76381 17.5831C9.2747 18.8165 10.1399 19.8707 11.2499 20.6124C12.3599 21.3541 13.665 21.75 15 21.75C16.7902 21.75 18.5071 21.0388 19.773 19.773C21.0388 18.5071 21.75 16.7902 21.75 15ZM24 7.6875C24 7.35374 23.901 7.02748 23.7156 6.74998C23.5302 6.47247 23.2666 6.25618 22.9583 6.12845C22.6499 6.00073 22.3106 5.96731 21.9833 6.03242C21.6559 6.09754 21.3553 6.25826 21.1193 6.49426C20.8833 6.73026 20.7225 7.03094 20.6574 7.35828C20.5923 7.68563 20.6257 8.02493 20.7535 8.33328C20.8812 8.64163 21.0975 8.90518 21.375 9.09061C21.6525 9.27603 21.9787 9.375 22.3125 9.375C22.7601 9.375 23.1893 9.19721 23.5057 8.88074C23.8222 8.56428 24 8.13505 24 7.6875Z" fill="#474747"/>
</svg>
