<svg width="26" height="30" viewBox="0 0 26 30" fill="none" xmlns="http://www.w3.org/2000/svg">
<path d="M22.2929 6.63053C22.1001 6.5285 21.9125 6.41664 21.7307 6.29539C21.202 5.93738 20.7172 5.51552 20.2869 5.03892C19.2101 3.77697 18.808 2.49674 18.6598 1.60039H18.6658C18.5421 0.856382 18.5932 0.375 18.601 0.375H13.6967V19.7997C13.6967 20.0605 13.6967 20.3182 13.6859 20.5729C13.6859 20.6046 13.683 20.6339 13.6812 20.668C13.6812 20.682 13.6812 20.6966 13.6782 20.7113V20.7222C13.6265 21.4192 13.4084 22.0925 13.043 22.6828C12.6777 23.2731 12.1763 23.7625 11.583 24.1078C10.9646 24.4681 10.2652 24.6571 9.55382 24.6562C7.26883 24.6562 5.41693 22.7477 5.41693 20.3908C5.41693 18.0338 7.26883 16.1253 9.55382 16.1253C9.98635 16.1249 10.4162 16.1946 10.8275 16.3319L10.8334 11.2171C9.58497 11.0519 8.31663 11.1535 7.10843 11.5155C5.90023 11.8776 4.7784 12.4922 3.81369 13.3205C2.96839 14.0728 2.25774 14.9704 1.71372 15.973C1.5067 16.3386 0.725603 17.8077 0.631015 20.1921C0.571526 21.5455 0.96832 22.9476 1.1575 23.527V23.5392C1.27647 23.8805 1.73752 25.0449 2.48887 26.0266C3.09473 26.814 3.81053 27.5057 4.61323 28.0795V28.0673L4.62513 28.0795C6.99935 29.732 9.63175 29.6235 9.63175 29.6235C10.0874 29.6047 11.6139 29.6235 13.3475 28.782C15.2701 27.8491 16.3647 26.4592 16.3647 26.4592C17.064 25.6287 17.6201 24.6823 18.009 23.6605C18.4528 22.4656 18.601 21.0324 18.601 20.4596V10.1544C18.6604 10.1909 19.4528 10.7278 19.4528 10.7278C19.4528 10.7278 20.5944 11.4773 22.3755 11.9653C23.6534 12.3127 25.375 12.3858 25.375 12.3858V7.39892C24.7718 7.46594 23.5469 7.27095 22.2929 6.63053Z" fill="#474747"/>
</svg>
