<svg width="32" height="26" viewBox="0 0 32 26" fill="none" xmlns="http://www.w3.org/2000/svg">
<path d="M31.68 3C30.525 3.525 29.28 3.87 27.99 4.035C29.31 3.24 30.33 1.98 30.81 0.465C29.565 1.215 28.185 1.74 26.73 2.04C25.545 0.75 23.88 0 21.99 0C18.465 0 15.585 2.88 15.585 6.435C15.585 6.945 15.645 7.44 15.75 7.905C10.41 7.635 5.655 5.07 2.49 1.185C1.935 2.13 1.62 3.24 1.62 4.41C1.62 6.645 2.745 8.625 4.485 9.75C3.42 9.75 2.43 9.45 1.56 9V9.045C1.56 12.165 3.78 14.775 6.72 15.36C5.77609 15.6183 4.78515 15.6543 3.825 15.465C4.23241 16.7437 5.03031 17.8626 6.10653 18.6644C7.18275 19.4662 8.48317 19.9105 9.825 19.935C7.55045 21.7357 4.731 22.709 1.83 22.695C1.32 22.695 0.810003 22.665 0.300003 22.605C3.15 24.435 6.54 25.5 10.17 25.5C21.99 25.5 28.485 15.69 28.485 7.185C28.485 6.9 28.485 6.63 28.47 6.345C29.73 5.445 30.81 4.305 31.68 3Z" fill="#474747"/>
</svg>
